
<svg version="1.1" xmlns="http://www.w3.org/2000/svg" width="1280" height="1280">
<!-- <path d="M0 0 C422.4 0 844.8 0 1280 0 C1280 422.4 1280 844.8 1280 1280 C857.6 1280 435.2 1280 0 1280 C0 857.6 0 435.2 0 0 Z " fill="#FDFDFD" transform="translate(0,0)"/> -->
<path d="M0 0 C12.11 34.06 -11.33 89.08 -26.07 120.1 C-27.36 122.74 -28.67 125.37 -30 128 C-30.37 128.75 -30.74 129.5 -31.13 130.28 C-47.5 163.24 -69.35 193.89 -93 222 C-93.76 222.94 -94.51 223.88 -95.29 224.85 C-101.8 232.82 -108.93 240.17 -116.17 247.46 C-117.28 248.59 -118.4 249.72 -119.52 250.86 C-126.99 258.45 -134.78 265.23 -143.26 271.66 C-144.96 272.97 -146.63 274.31 -148.29 275.66 C-158.06 283.57 -168.44 290.47 -178.94 297.38 C-181.55 299.1 -184.17 300.83 -186.78 302.56 C-188.4 303.63 -190.01 304.69 -191.62 305.75 C-196.15 308.74 -200.6 311.82 -205 315 C-202.22 317.97 -200.07 319.24 -196 320 C-193.31 318.69 -193.31 318.69 -190.81 316.38 C-185.62 312.12 -180.2 308.47 -174.5 304.94 C-172.87 303.92 -171.24 302.9 -169.61 301.89 C-168.82 301.4 -168.04 300.91 -167.24 300.41 C-162.43 297.38 -157.71 294.2 -153 291 C-150.26 292.01 -149.15 292.76 -147.59 295.28 C-147.16 296.23 -146.74 297.17 -146.3 298.15 C-145.82 299.23 -145.34 300.3 -144.84 301.4 C-144.33 302.57 -143.83 303.74 -143.31 304.94 C-142.79 306.15 -142.26 307.35 -141.72 308.6 C-129.68 336.55 -122.15 365.89 -118 396 C-117.88 396.85 -117.76 397.71 -117.64 398.59 C-114.25 424.46 -114.57 452.16 -118 478 C-118.12 478.93 -118.25 479.87 -118.37 480.83 C-124.04 521.75 -137.16 562.76 -159 598 C-159.43 598.71 -159.85 599.41 -160.29 600.14 C-177.31 628.26 -198.98 654.59 -224 676 C-225.37 677.2 -225.37 677.2 -226.77 678.43 C-268.65 714.93 -320.57 738.79 -375 749 C-375.88 749.17 -376.75 749.33 -377.66 749.5 C-438.44 760.62 -506.02 753.49 -562 727 C-560.61 722.43 -558.74 718.28 -556.52 714.07 C-556.19 713.44 -555.86 712.8 -555.52 712.15 C-554.48 710.14 -553.43 708.13 -552.38 706.12 C-551.66 704.76 -550.95 703.39 -550.23 702.02 C-548.49 698.67 -546.75 695.34 -545 692 C-539.91 692.96 -534.96 693.92 -530.06 695.62 C-524.74 697.12 -519.62 697.33 -514.12 697.38 C-512.89 697.4 -512.89 697.4 -511.64 697.42 C-506.5 697.38 -502.81 696.81 -499 693 C-497.21 679.13 -502.69 669.35 -510.5 658.5 C-513.97 654.05 -517.52 650.43 -522 647 C-521.66 647.42 -521.32 647.83 -520.97 648.26 C-517.48 652.69 -514.54 657.3 -511.75 662.19 C-511.41 662.78 -511.07 663.38 -510.72 663.99 C-506.51 671.45 -504.84 677.39 -506 686 C-508.92 690.3 -511.96 691.95 -517 693 C-529.25 694.29 -541.77 690.6 -553 686 C-553.26 686.68 -553.52 687.36 -553.78 688.07 C-555.18 691.44 -556.82 694.67 -558.5 697.91 C-559.02 698.93 -559.02 698.93 -559.55 699.96 C-560.31 701.42 -561.06 702.88 -561.81 704.33 C-563.02 706.66 -564.22 708.99 -565.42 711.32 C-569.13 718.52 -572.85 725.71 -576.58 732.9 C-578.11 735.87 -579.65 738.84 -581.18 741.81 C-581.93 743.27 -582.69 744.73 -583.44 746.19 C-587.37 753.77 -591.22 761.37 -594.84 769.09 C-595.14 769.73 -595.44 770.36 -595.75 771.02 C-597.14 773.98 -598.51 776.94 -599.85 779.92 C-600.33 780.95 -600.81 781.97 -601.3 783.03 C-601.7 783.92 -602.11 784.82 -602.52 785.74 C-605.21 789.86 -609.28 791.26 -613.82 792.73 C-615.19 793.18 -615.19 793.18 -616.6 793.65 C-617.58 793.97 -618.56 794.29 -619.56 794.62 C-647.07 803.99 -670.77 816.81 -690.88 838 C-692.86 839.87 -694.51 840.95 -697 842 C-698.51 841.1 -700.01 840.18 -701.5 839.25 C-702.34 838.74 -703.17 838.23 -704.03 837.7 C-705.01 836.86 -705.01 836.86 -706 836 C-706 829.46 -701.12 825.79 -697 821 C-696.49 820.32 -695.97 819.63 -695.44 818.93 C-679.51 798.33 -646.91 784.85 -622 781 C-621.74 780.15 -621.47 779.3 -621.2 778.42 C-619.95 774.86 -618.43 771.63 -616.73 768.26 C-616.41 767.61 -616.09 766.96 -615.75 766.3 C-614.68 764.17 -613.61 762.04 -612.54 759.91 C-611.78 758.4 -611.02 756.9 -610.27 755.39 C-608.28 751.42 -606.28 747.45 -604.28 743.48 C-600.73 736.44 -597.2 729.39 -593.66 722.35 C-593.28 721.59 -592.9 720.83 -592.51 720.05 C-586.18 707.44 -580.02 694.76 -574 682 C-571.96 677.7 -569.9 673.41 -567.81 669.12 C-567.36 668.16 -566.9 667.19 -566.43 666.2 C-563.16 659.52 -559.2 654.31 -554 649 C-552.03 650.47 -550.07 651.94 -548.11 653.42 C-546.45 654.66 -544.76 655.87 -543.06 657.06 C-540.53 659.44 -540.28 660.57 -540 664 C-541 666.68 -541 666.68 -542.44 669.31 C-542.91 670.2 -543.38 671.08 -543.87 671.99 C-544.24 672.65 -544.62 673.32 -545 674 C-544.39 674.2 -543.77 674.41 -543.14 674.62 C-539.76 675.75 -536.38 676.87 -533 678 C-528.35 678.31 -528.35 678.31 -524 677 C-524 664.39 -533.08 656.67 -541.43 648.24 C-544.13 645.59 -546.54 643.53 -550 642 C-550.66 641.28 -551.32 640.56 -552 639.81 C-552.66 639.21 -553.32 638.62 -554 638 C-556.57 638.22 -557.71 638.71 -559.55 640.55 C-562.98 645.33 -565.86 650.16 -568.45 655.44 C-568.86 656.24 -569.26 657.04 -569.67 657.87 C-570.99 660.51 -572.3 663.15 -573.61 665.79 C-574.53 667.65 -575.46 669.51 -576.39 671.37 C-578.34 675.27 -580.28 679.18 -582.22 683.08 C-584.67 688.02 -587.13 692.96 -589.59 697.89 C-601.72 722.21 -601.72 722.21 -613.64 746.63 C-614.05 747.47 -614.46 748.32 -614.89 749.19 C-617.14 753.91 -619.04 758.67 -620.73 763.62 C-622.66 768.84 -624.71 772.71 -629.67 775.51 C-636.23 778.3 -643.04 780.17 -649.9 782.07 C-656.71 784.12 -662.84 787.52 -669 791 C-669.62 791.34 -670.25 791.69 -670.89 792.05 C-683.66 799.15 -694.89 807.92 -705.63 817.82 C-707.26 819.32 -708.92 820.81 -710.59 822.28 C-715.83 826.89 -720.56 831.62 -725 837 C-725.96 838.06 -725.96 838.06 -726.95 839.15 C-731.16 844.02 -732.78 847.44 -732.83 853.93 C-733 856 -733 856 -735 858 C-738.5 858.38 -740.36 858.4 -743.38 856.5 C-744.18 855.76 -744.18 855.76 -745 855 C-744.81 851.69 -744.81 851.69 -744 848 C-743.27 847.64 -742.54 847.28 -741.79 846.91 C-737.39 843.9 -735.8 839.46 -733.5 834.75 C-732.43 832.64 -731.37 830.53 -730.29 828.43 C-729.75 827.35 -729.2 826.28 -728.64 825.17 C-724.05 816.29 -719 807.66 -714 799 C-713.5 798.14 -713.5 798.14 -712.99 797.25 C-689.44 756.44 -689.44 756.44 -685 752 C-683.61 751.73 -682.21 751.48 -680.81 751.25 C-674.91 749.98 -672.1 747.38 -668.12 742.88 C-666.18 737.91 -666.11 731.8 -667.73 726.69 C-668.11 722.87 -666.7 721.31 -664.55 718.17 C-664.18 717.62 -663.8 717.07 -663.42 716.5 C-662.21 714.72 -660.98 712.95 -659.75 711.19 C-658.92 709.97 -658.09 708.76 -657.26 707.54 C-655.23 704.56 -653.18 701.58 -651.12 698.62 C-649.52 696.31 -647.94 693.99 -646.35 691.66 C-643.92 688.1 -641.46 684.55 -639 681 C-642.79 676.4 -646.74 672.22 -651.19 668.25 C-659.94 660.29 -668.43 652.1 -676 643 C-676.68 642.19 -676.68 642.19 -677.37 641.37 C-725.22 584.21 -752.19 512.18 -752.25 437.5 C-752.25 436.69 -752.25 435.89 -752.25 435.06 C-752.15 357.73 -722.8 281.48 -671 224 C-670.49 223.43 -669.97 222.86 -669.44 222.27 C-661.08 213.03 -652.57 204.02 -643 196 C-642.46 195.54 -641.92 195.09 -641.36 194.62 C-619.04 175.94 -595.05 160.94 -569 148 C-568.18 147.59 -567.36 147.18 -566.51 146.76 C-530.23 128.9 -487.39 117.97 -446.93 117.8 C-445.89 117.79 -444.85 117.79 -443.78 117.78 C-441.59 117.77 -439.4 117.76 -437.2 117.76 C-433.93 117.75 -430.66 117.72 -427.39 117.69 C-408.55 117.59 -390.03 119.4 -371.56 123.25 C-370.54 123.46 -369.52 123.67 -368.47 123.89 C-328.39 132.42 -290.23 148.45 -256 171 C-255.19 170.24 -254.38 169.48 -253.54 168.69 C-246.57 162.17 -239.45 155.97 -232 150 C-230.77 148.99 -229.55 147.99 -228.32 146.98 C-221.05 141 -213.69 135.19 -206.14 129.59 C-201.09 125.84 -196.13 122 -191.19 118.12 C-181.93 110.89 -172.5 103.91 -163 97 C-162.25 96.45 -161.51 95.91 -160.73 95.35 C-149.81 87.39 -138.78 79.6 -127.69 71.87 C-124.86 69.9 -122.04 67.92 -119.22 65.95 C-107.96 58.06 -96.61 50.36 -85 43 C-83.42 41.99 -81.84 40.98 -80.26 39.98 C-70.6 33.83 -60.88 27.79 -51 22 C-50.39 21.64 -49.77 21.28 -49.14 20.9 C-40.96 16.1 -32.62 11.73 -24.06 7.62 C-23.2 7.21 -22.33 6.79 -21.44 6.36 C-6.62 -0.64 -6.62 -0.64 0 0 Z " fill="#313131" transform="translate(1081,197)"/>
<path d="M0 0 C1.56 -0.01 1.56 -0.01 3.15 -0.02 C5.34 -0.03 7.53 -0.03 9.73 -0.04 C13 -0.05 16.27 -0.08 19.54 -0.11 C38.38 -0.2 56.9 1.6 75.37 5.45 C76.9 5.77 76.9 5.77 78.46 6.09 C117.35 14.36 157.83 29.2 189.93 53.2 C188.3 57.33 185.31 60.08 182.21 63.13 C181.63 63.71 181.05 64.3 180.44 64.9 C178.51 66.82 176.57 68.74 174.64 70.66 C173.29 72 171.94 73.34 170.59 74.68 C167.04 78.22 163.48 81.76 159.92 85.29 C154.24 90.93 148.57 96.57 142.9 102.22 C140.93 104.18 138.95 106.14 136.97 108.1 C128.89 116.12 128.89 116.12 121.31 124.6 C119.77 126.39 118.12 128.05 116.43 129.7 C113.42 132.67 110.63 135.78 107.87 138.98 C105.64 141.53 103.35 144.02 101.05 146.52 C96.99 150.97 93.14 155.55 89.35 160.25 C86.09 164.23 82.73 168.12 79.35 171.99 C75.37 176.6 71.64 181.38 67.93 186.2 C67.32 186.99 66.71 187.77 66.08 188.58 C57.11 200.15 48.5 211.88 40.37 224.05 C39.03 226.06 37.68 228.06 36.32 230.05 C25.53 246.04 15.45 262.43 5.93 279.2 C5.55 279.86 5.18 280.52 4.79 281.2 C-5.83 299.79 -15.89 318.69 -25.66 337.73 C-26.23 338.83 -26.79 339.92 -27.37 341.04 C-28.12 342.5 -28.12 342.5 -28.88 343.99 C-30.07 346.2 -30.07 346.2 -31.07 347.2 C-31.73 348.19 -32.39 349.18 -33.07 350.2 C-36.74 346.69 -39.76 343.08 -42.76 338.95 C-45.39 334.97 -45.39 334.97 -49.07 332.2 C-49.47 333.49 -49.47 333.49 -49.88 334.81 C-51.08 338.22 -52.52 341.32 -54.16 344.54 C-54.46 345.14 -54.76 345.73 -55.07 346.34 C-55.71 347.61 -56.35 348.88 -57 350.16 C-58.73 353.56 -60.44 356.97 -62.16 360.38 C-62.5 361.06 -62.84 361.75 -63.19 362.45 C-65.91 367.86 -68.54 373.3 -71.13 378.77 C-76.78 390.69 -82.59 402.54 -88.38 414.39 C-88.87 415.38 -89.35 416.36 -89.84 417.38 C-94.88 427.68 -99.91 437.97 -105.07 448.2 C-107.41 447.25 -108.79 446.67 -110.12 444.48 C-110.77 442.72 -111.42 440.96 -112.07 439.2 C-115.54 448.07 -118.77 456.95 -121.4 466.11 C-121.59 466.79 -121.79 467.46 -121.99 468.16 C-122.98 471.57 -123.94 474.99 -124.87 478.41 C-125.23 479.66 -125.59 480.92 -125.96 482.21 C-126.27 483.34 -126.58 484.47 -126.9 485.64 C-128.07 488.2 -128.07 488.2 -129.9 489.17 C-132.52 489.21 -134.38 488.68 -136.84 487.8 C-137.75 487.49 -138.66 487.18 -139.59 486.85 C-140.53 486.51 -141.48 486.18 -142.45 485.83 C-154.03 481.73 -164.57 478.68 -176.26 483.94 C-178.46 485.48 -179.14 486.7 -180.07 489.2 C-181.2 498.28 -177.02 506.74 -172.07 514.2 C-171.41 514.53 -170.75 514.86 -170.07 515.2 C-170.07 515.86 -170.07 516.52 -170.07 517.2 C-169.41 517.2 -168.75 517.2 -168.07 517.2 C-167.85 516.54 -167.63 515.87 -167.41 515.19 C-165.63 511.22 -163.21 507.94 -160.63 504.45 C-160.14 503.77 -159.65 503.08 -159.15 502.38 C-158.67 501.73 -158.19 501.08 -157.7 500.41 C-157.05 499.52 -157.05 499.52 -156.39 498.61 C-155.07 497.2 -155.07 497.2 -152.07 496.2 C-149.29 496.69 -149.29 496.69 -146.13 497.52 C-145.09 497.78 -144.05 498.04 -142.98 498.32 C-140.48 499.08 -138.35 499.95 -136.07 501.2 C-136.07 501.86 -136.07 502.52 -136.07 503.2 C-135.41 503.2 -134.75 503.2 -134.07 503.2 C-134.07 503.86 -134.07 504.52 -134.07 505.2 C-135.12 504.85 -136.17 504.5 -137.26 504.14 C-140.97 503.23 -142.52 503.08 -146.07 504.2 C-146.82 504.39 -147.58 504.58 -148.36 504.77 C-152.4 506.91 -154.33 510.17 -156.88 513.89 C-157.44 514.68 -157.99 515.47 -158.56 516.28 C-159.77 518 -160.97 519.72 -162.16 521.45 C-164.14 524.3 -166.13 527.14 -168.12 529.98 C-175.58 540.63 -182.93 551.34 -190.07 562.2 C-193.08 560.86 -195.07 559.4 -197.32 557.02 C-199.69 554.57 -202.1 552.28 -204.7 550.08 C-213.45 542.52 -221.7 534.12 -229.07 525.2 C-229.52 524.67 -229.97 524.14 -230.43 523.58 C-278.29 466.42 -305.26 394.38 -305.32 319.7 C-305.32 318.9 -305.32 318.09 -305.32 317.26 C-305.22 239.93 -275.87 163.69 -224.07 106.2 C-223.56 105.63 -223.04 105.06 -222.51 104.48 C-214.15 95.23 -205.64 86.23 -196.07 78.2 C-195.53 77.75 -194.99 77.29 -194.43 76.82 C-172.11 58.14 -148.12 43.15 -122.07 30.2 C-121.25 29.79 -120.43 29.38 -119.58 28.96 C-83.3 11.11 -40.46 0.18 0 0 Z " fill="#F08635" transform="translate(634.0703125,314.796875)"/>
<path d="M0 0 C2.74 1.01 3.85 1.76 5.41 4.28 C5.84 5.23 6.26 6.17 6.7 7.15 C7.18 8.23 7.66 9.3 8.16 10.4 C8.67 11.57 9.17 12.74 9.69 13.94 C10.21 15.15 10.74 16.35 11.28 17.6 C23.32 45.55 30.85 74.89 35 105 C35.12 105.85 35.24 106.71 35.36 107.59 C38.75 133.46 38.43 161.16 35 187 C34.88 187.93 34.75 188.87 34.63 189.83 C28.96 230.75 15.84 271.76 -6 307 C-6.43 307.71 -6.85 308.41 -7.29 309.14 C-24.31 337.26 -45.98 363.59 -71 385 C-71.91 385.8 -72.83 386.6 -73.77 387.43 C-115.65 423.93 -167.57 447.79 -222 458 C-222.88 458.17 -223.75 458.33 -224.66 458.5 C-285.44 469.62 -353.02 462.49 -409 436 C-407.61 431.43 -405.74 427.28 -403.52 423.07 C-403.03 422.12 -403.03 422.12 -402.52 421.15 C-401.48 419.14 -400.43 417.13 -399.38 415.12 C-398.66 413.76 -397.95 412.39 -397.23 411.02 C-395.49 407.67 -393.75 404.34 -392 401 C-386.91 401.96 -381.96 402.92 -377.06 404.62 C-371.74 406.12 -366.62 406.33 -361.12 406.38 C-360.3 406.39 -359.48 406.4 -358.64 406.42 C-353.5 406.38 -349.81 405.81 -346 402 C-344.21 388.11 -349.68 378.32 -357.56 367.5 C-363.18 359.84 -363.18 359.84 -371 355 C-372.58 353.33 -372.58 353.33 -374.25 351.25 C-377.5 347.4 -380.79 344.75 -385 342 C-384.67 341.01 -384.34 340.02 -384 339 C-383.02 338.82 -383.02 338.82 -382.02 338.64 C-353.16 333.26 -325.84 324.81 -299.82 310.96 C-297.95 309.97 -296.07 309.02 -294.19 308.08 C-283.17 302.48 -272.59 295.99 -264 287 C-264.61 286.75 -265.23 286.49 -265.86 286.23 C-266.67 285.89 -267.48 285.54 -268.31 285.19 C-269.11 284.85 -269.91 284.51 -270.74 284.17 C-272.98 283.01 -274.28 281.81 -276 280 C-260.09 269.53 -244.16 259.08 -228 249 C-233.29 246.41 -237.58 245.5 -243.44 245.31 C-244.17 245.28 -244.9 245.24 -245.65 245.21 C-247.44 245.13 -249.22 245.06 -251 245 C-251 244.01 -251 243.02 -251 242 C-235.93 233.94 -220.66 226.36 -205.25 218.97 C-197.38 215.18 -189.61 211.3 -182 207 C-182.99 205.78 -182.99 205.78 -184.92 205.96 C-185.74 206 -186.56 206.04 -187.4 206.09 C-188.29 206.13 -189.18 206.17 -190.1 206.22 C-191.04 206.27 -191.97 206.32 -192.94 206.38 C-193.87 206.42 -194.8 206.46 -195.76 206.51 C-200.54 206.59 -200.54 206.59 -205 208 C-207.55 208.07 -210.07 208.09 -212.62 208.06 C-213.33 208.06 -214.04 208.05 -214.77 208.05 C-216.51 208.04 -218.26 208.02 -220 208 C-220 207.01 -220 206.02 -220 205 C-217.47 203.2 -214.99 201.62 -212.31 200.06 C-211.09 199.34 -211.09 199.34 -209.85 198.59 C-203.15 194.62 -196.38 190.75 -189.6 186.9 C-173.13 177.55 -156.81 167.91 -140.56 158.19 C-139.77 157.71 -138.98 157.24 -138.16 156.75 C-134.03 154.27 -129.99 151.71 -126 149 C-127.64 147.36 -129.58 147.79 -131.84 147.72 C-132.82 147.68 -133.8 147.64 -134.81 147.61 C-135.84 147.57 -136.87 147.54 -137.94 147.5 C-139.97 147.43 -142 147.36 -144.03 147.28 C-144.93 147.25 -145.84 147.22 -146.77 147.19 C-149 147 -149 147 -151 146 C-152.38 145.92 -153.75 145.89 -155.13 145.9 C-155.94 145.91 -156.74 145.91 -157.57 145.91 C-158.42 145.92 -159.26 145.93 -160.12 145.94 C-161.4 145.94 -161.4 145.94 -162.7 145.95 C-164.8 145.96 -166.9 145.98 -169 146 C-169.33 145.34 -169.66 144.68 -170 144 C-169.12 143.56 -169.12 143.56 -168.22 143.1 C-147.86 132.8 -128.6 121.21 -110 108 C-109.31 107.51 -108.62 107.02 -107.91 106.52 C-91.54 94.91 -75.35 82.93 -60 70 C-58.96 69.13 -57.92 68.27 -56.88 67.4 C-50.85 62.36 -44.95 57.21 -39.19 51.86 C-35.72 48.64 -32.17 45.55 -28.52 42.54 C-26.83 40.83 -25.96 39.19 -25 37 C-25.81 36.67 -26.62 36.35 -27.45 36.01 C-28.52 35.57 -29.59 35.14 -30.69 34.69 C-31.74 34.26 -32.8 33.83 -33.89 33.39 C-36.75 32.11 -39.35 30.68 -42 29 C-38.72 25.54 -35.5 22.82 -31.46 20.29 C-30.41 19.62 -29.35 18.95 -28.26 18.26 C-27.16 17.58 -26.07 16.89 -24.94 16.19 C-22.78 14.83 -20.62 13.47 -18.46 12.11 C-17.41 11.44 -16.35 10.77 -15.25 10.08 C-10.12 6.8 -5.06 3.41 0 0 Z " fill="#F18735" transform="translate(928,488)"/>
<path d="M0 0 C0.66 0.33 1.32 0.66 2 1 C1.07 1.92 0.14 2.84 -0.82 3.78 C-9.31 12.16 -9.31 12.16 -17.3 21.01 C-19.48 23.56 -21.74 26.03 -24 28.5 C-26.85 31.62 -29.67 34.75 -32.44 37.94 C-35.87 41.89 -39.41 45.73 -42.95 49.58 C-45.51 52.35 -48.03 55.15 -50.5 58 C-53.91 61.93 -57.43 65.75 -60.95 69.58 C-63.51 72.35 -66.03 75.15 -68.5 78 C-71.91 81.93 -75.43 85.75 -78.95 89.58 C-81.51 92.35 -84.03 95.15 -86.5 98 C-89.44 101.39 -92.46 104.7 -95.5 108 C-99.12 111.93 -102.69 115.9 -106.19 119.94 C-109.28 123.46 -112.45 126.9 -115.6 130.35 C-117.55 132.51 -119.47 134.68 -121.38 136.88 C-125.01 141.07 -128.8 145.12 -132.57 149.19 C-136.46 153.39 -140.27 157.65 -144 162 C-146.91 160.69 -148.25 159.74 -150.5 157.31 C-151.74 156.17 -151.74 156.17 -153 155 C-156.26 155.3 -157.93 156.55 -160.19 158.83 C-160.79 159.43 -161.38 160.02 -162 160.63 C-162.64 161.28 -163.27 161.93 -163.93 162.6 C-164.92 163.6 -164.92 163.6 -165.94 164.62 C-167.35 166.04 -168.76 167.46 -170.16 168.88 C-172.29 171.04 -174.42 173.18 -176.56 175.33 C-177.93 176.71 -179.3 178.09 -180.68 179.47 C-181.31 180.11 -181.93 180.74 -182.58 181.39 C-186.35 185.22 -189.94 189.17 -193.45 193.23 C-195.21 195.24 -197.04 197.14 -198.94 199 C-199.94 199.99 -199.94 199.99 -200.96 201 C-202.32 202.33 -203.68 203.67 -205.04 205 C-209.01 208.93 -212.77 212.96 -216.41 217.19 C-219.23 220.4 -222.32 223.33 -225.38 226.31 C-228.09 229.09 -230.62 231.97 -233.16 234.9 C-236.15 238.31 -239.26 241.59 -242.38 244.88 C-247.27 250.08 -252.13 255.31 -256.89 260.64 C-259.28 263.32 -261.7 265.97 -264.12 268.62 C-267.54 272.37 -270.91 276.16 -274.23 279.98 C-276.25 282.29 -278.31 284.55 -280.38 286.81 C-283.49 290.25 -286.46 293.76 -289.38 297.38 C-293.06 301.93 -296.93 306.23 -300.91 310.51 C-304.73 314.65 -308.29 318.96 -311.82 323.35 C-313.98 325.97 -316.21 328.49 -318.5 331 C-322.35 335.22 -325.97 339.59 -329.56 344.03 C-332.28 347.34 -335.07 350.58 -337.88 353.81 C-342.36 359.01 -346.65 364.32 -350.85 369.75 C-354.12 373.94 -357.52 377.99 -361 382 C-366.43 388.26 -371.57 394.7 -376.64 401.25 C-378.91 404.18 -381.21 407.09 -383.5 410 C-384.42 411.18 -385.35 412.35 -386.27 413.53 C-388.03 415.77 -389.8 418.01 -391.57 420.25 C-402.96 434.65 -414.21 449.18 -424.75 464.22 C-426.15 466.21 -427.55 468.19 -428.96 470.18 C-431.98 474.44 -434.99 478.72 -438 483 C-438.44 483.63 -438.89 484.26 -439.34 484.91 C-440.57 486.64 -441.78 488.38 -443 490.12 C-443.68 491.1 -444.36 492.07 -445.06 493.07 C-447.08 496.03 -447.08 496.03 -448.88 499.43 C-451.11 503.39 -453.92 506.67 -456.94 510.06 C-457.5 510.71 -458.06 511.35 -458.64 512.01 C-463.19 517.17 -467.88 522.18 -472.59 527.19 C-476.38 531.26 -479.81 535.44 -483 540 C-483.33 539.34 -483.66 538.68 -484 538 C-483.19 536.19 -483.19 536.19 -482 534 C-481.58 532.92 -481.58 532.92 -481.16 531.82 C-470.75 506.55 -452.01 482.99 -436 461 C-435.21 459.92 -435.21 459.92 -434.41 458.81 C-422.05 441.82 -409.32 425.1 -396.28 408.62 C-394.97 406.97 -393.67 405.3 -392.38 403.63 C-386.76 396.43 -381.02 389.35 -375.19 382.32 C-371.53 377.89 -367.95 373.42 -364.44 368.88 C-360.04 363.21 -355.42 357.79 -350.7 352.39 C-347.56 348.81 -344.49 345.2 -341.5 341.5 C-336.9 335.83 -332.12 330.33 -327.33 324.83 C-324.18 321.21 -321.05 317.58 -317.94 313.94 C-317.2 313.08 -317.2 313.08 -316.45 312.21 C-313.94 309.27 -311.44 306.34 -308.93 303.4 C-303.47 296.98 -297.93 290.66 -292.23 284.45 C-289.71 281.68 -287.24 278.86 -284.78 276.03 C-281.95 272.8 -279.06 269.62 -276.18 266.43 C-274.31 264.34 -272.46 262.24 -270.62 260.12 C-266.32 255.19 -261.87 250.38 -257.44 245.56 C-255.59 243.56 -253.76 241.55 -251.92 239.54 C-249.61 237.03 -247.31 234.51 -245 232 C-244.54 231.5 -244.08 231 -243.61 230.48 C-219.62 204.36 -219.62 204.36 -210.09 195.15 C-208.26 193.27 -206.56 191.34 -204.85 189.36 C-201.15 185.11 -197.25 181.11 -193.26 177.13 C-192.16 176.02 -192.16 176.02 -191.02 174.89 C-188.6 172.46 -186.18 170.04 -183.75 167.62 C-182.06 165.92 -180.36 164.22 -178.66 162.53 C-175.11 158.98 -171.56 155.43 -168.01 151.88 C-163.48 147.35 -158.94 142.82 -154.41 138.28 C-150.91 134.77 -147.41 131.27 -143.9 127.77 C-142.23 126.1 -140.56 124.43 -138.89 122.76 C-136.55 120.41 -134.21 118.07 -131.87 115.74 C-131.19 115.05 -130.5 114.37 -129.8 113.67 C-125.91 109.79 -121.91 106.1 -117.74 102.52 C-115.37 100.45 -113.19 98.25 -111 96 C-107.53 92.43 -103.9 89.14 -100.14 85.88 C-96.5 82.68 -93.01 79.34 -89.5 76 C-84.69 71.42 -79.83 66.93 -74.81 62.58 C-72.4 60.47 -70.04 58.3 -67.69 56.12 C-63.15 51.98 -58.47 48.07 -53.68 44.21 C-51.05 42.04 -48.52 39.8 -46 37.5 C-41.79 33.66 -37.44 30.05 -33.01 26.47 C-28.9 23.1 -24.88 19.63 -20.86 16.16 C-19.24 14.77 -17.62 13.38 -16 12 C-15.12 11.24 -14.24 10.49 -13.34 9.71 C-11.04 8.03 -9.68 7.66 -7 7 C-5.03 5.39 -5.03 5.39 -3.25 3.44 C-2.33 2.48 -2.33 2.48 -1.39 1.5 C-0.93 1 -0.47 0.51 0 0 Z " fill="#FCFCFC" transform="translate(1026,254)"/>
<path d="M0 0 C1.96 1.04 3.44 2.13 5.04 3.67 C5.58 4.16 6.11 4.65 6.66 5.16 C7.73 6.92 7.73 6.92 7.66 9.36 C6.52 12.51 5.06 13.96 2.61 16.24 C-0.91 19.59 -4.16 23.01 -7.32 26.69 C-9.76 29.48 -12.26 32.2 -14.77 34.92 C-18.41 38.88 -22.01 42.87 -25.54 46.94 C-29.06 50.98 -32.68 54.94 -36.27 58.92 C-37.77 60.59 -39.27 62.26 -40.77 63.92 C-67.77 93.92 -94.77 123.92 -121.77 153.92 C-122.51 154.75 -123.25 155.57 -124.01 156.41 C-125.54 158.11 -127.06 159.8 -128.59 161.49 C-131.95 165.22 -135.3 168.94 -138.58 172.74 C-142.25 176.95 -146.06 181.04 -149.86 185.14 C-153.16 188.7 -156.39 192.3 -159.57 195.97 C-163.08 200 -166.69 203.95 -170.27 207.92 C-171.75 209.57 -173.23 211.21 -174.71 212.86 C-177.92 216.44 -181.15 219.99 -184.39 223.55 C-187.2 226.63 -189.98 229.72 -192.71 232.86 C-196.14 236.81 -199.68 240.65 -203.22 244.5 C-205.77 247.28 -208.3 250.07 -210.77 252.92 C-214.18 256.85 -217.7 260.67 -221.22 264.5 C-223.78 267.28 -226.3 270.07 -228.77 272.92 C-232.18 276.85 -235.7 280.67 -239.22 284.5 C-241.78 287.28 -244.3 290.07 -246.77 292.92 C-250.18 296.85 -253.7 300.67 -257.22 304.5 C-259.78 307.28 -262.3 310.07 -264.77 312.92 C-267.71 316.31 -270.73 319.62 -273.77 322.92 C-278.01 327.53 -282.17 332.19 -286.27 336.92 C-287.58 338.42 -288.89 339.92 -290.21 341.42 C-290.79 342.09 -291.38 342.76 -291.98 343.45 C-292.41 343.94 -292.83 344.42 -293.27 344.92 C-293.76 343.44 -293.76 343.44 -294.27 341.92 C-293.12 339.76 -293.12 339.76 -291.32 337.23 C-290.67 336.3 -290.01 335.36 -289.33 334.4 C-288.61 333.39 -287.89 332.39 -287.14 331.36 C-286.41 330.32 -285.68 329.29 -284.92 328.22 C-282.71 325.11 -280.49 322.02 -278.27 318.92 C-277.14 317.33 -276 315.73 -274.87 314.14 C-267.17 303.33 -259.14 292.77 -251.05 282.24 C-249.51 280.24 -247.98 278.24 -246.45 276.23 C-241.65 269.94 -236.75 263.74 -231.8 257.57 C-228.91 253.99 -226.05 250.38 -223.22 246.75 C-216.91 238.66 -210.39 230.74 -203.84 222.83 C-201.74 220.29 -199.66 217.73 -197.58 215.17 C-193.89 210.65 -190.13 206.2 -186.35 201.75 C-183.49 198.38 -180.68 194.98 -177.89 191.55 C-173.25 185.84 -168.43 180.3 -163.59 174.75 C-160.47 171.15 -157.36 167.54 -154.27 163.92 C-145.45 153.62 -136.63 143.34 -127.47 133.34 C-124.95 130.58 -122.5 127.77 -120.05 124.95 C-117.21 121.72 -114.33 118.54 -111.45 115.35 C-109.6 113.29 -107.77 111.21 -105.96 109.11 C-101.36 103.83 -96.56 98.72 -91.8 93.58 C-89.45 91.04 -87.11 88.48 -84.77 85.92 C-83.41 84.44 -82.05 82.96 -80.69 81.47 C-79.71 80.4 -78.73 79.33 -77.75 78.26 C-72.34 72.35 -66.91 66.49 -61.19 60.87 C-59.38 59.04 -57.71 57.15 -56.04 55.19 C-51.68 50.18 -46.97 45.57 -42.23 40.92 C-39.08 37.8 -36.01 34.67 -33.12 31.3 C-28.15 25.53 -22.78 20.14 -17.43 14.73 C-16.19 13.47 -14.95 12.21 -13.72 10.94 C-11.93 9.1 -10.13 7.27 -8.32 5.45 C-7.5 4.59 -7.5 4.59 -6.66 3.72 C-2.82 -0.1 -2.82 -0.1 0 0 Z " fill="#F08634" transform="translate(872.26953125,408.077392578125)"/>
<path d="M0 0 C1.95 0.24 1.95 0.24 4.12 0.88 C5.21 1.18 5.21 1.18 6.32 1.49 C6.87 1.66 7.43 1.83 8 2 C8 2.66 8 3.32 8 4 C8.99 4.33 9.98 4.66 11 5 C10.5 5.42 10.01 5.85 9.5 6.29 C6.05 9.26 2.69 12.25 -0.5 15.5 C-4.16 19.21 -8.03 22.62 -12 26 C-12.96 26.83 -13.92 27.65 -14.91 28.5 C-22.14 34.7 -29.54 40.65 -37.06 46.49 C-39.13 48.1 -41.19 49.72 -43.25 51.35 C-64.36 67.94 -86.27 83.15 -109.23 97.06 C-112.01 98.75 -114.72 100.47 -117.36 102.38 C-125.92 108.25 -134.01 107.7 -144 107 C-144.33 106.34 -144.66 105.68 -145 105 C-144.12 104.56 -144.12 104.56 -143.22 104.1 C-122.86 93.8 -103.6 82.21 -85 69 C-84.31 68.51 -83.62 68.02 -82.91 67.52 C-66.54 55.91 -50.35 43.93 -35 31 C-33.96 30.13 -32.92 29.27 -31.88 28.4 C-25.34 22.94 -18.99 17.31 -12.74 11.52 C-9.71 8.74 -6.64 6.02 -3.52 3.34 C-2.31 2.27 -1.14 1.14 0 0 Z " fill="#FDFDFD" transform="translate(903,527)"/>
<path d="M0 0 C3.66 0.73 5.89 1.93 9 4 C2.95 19.56 -26.87 30.29 -40.9 36.55 C-90.51 58.18 -90.51 58.18 -113 57 C-113.33 57.66 -113.66 58.32 -114 59 C-116.31 57.35 -118.62 55.7 -121 54 C-120.67 53.01 -120.34 52.02 -120 51 C-119.35 50.88 -118.69 50.76 -118.02 50.64 C-89.16 45.26 -61.84 36.81 -35.82 22.96 C-33.95 21.97 -32.07 21.02 -30.19 20.08 C-20.18 14.99 -10.81 9.02 -2.3 1.66 C-1.16 0.84 -1.16 0.84 0 0 Z " fill="#FCFCFC" transform="translate(664,776)"/>
<path d="M0 0 C0.71 0.1 1.41 0.2 2.14 0.3 C3.89 0.55 5.63 0.81 7.38 1.06 C3.92 3.81 0.19 5.99 -3.62 8.19 C-9.73 11.74 -15.79 15.37 -21.81 19.06 C-33.81 26.41 -45.88 33.54 -58.2 40.36 C-66.53 44.98 -74.69 49.78 -82.62 55.06 C-85.23 55.2 -87.72 55.25 -90.31 55.19 C-91.01 55.18 -91.72 55.17 -92.44 55.16 C-94.17 55.14 -95.9 55.1 -97.62 55.06 C-97.62 54.07 -97.62 53.08 -97.62 52.06 C-95.1 50.26 -92.61 48.68 -89.94 47.12 C-88.72 46.4 -88.72 46.4 -87.48 45.66 C-80.77 41.68 -74 37.82 -67.22 33.97 C-59.47 29.56 -51.76 25.08 -44.06 20.56 C-43.14 20.02 -43.14 20.02 -42.19 19.47 C-33.24 14.22 -24.32 8.92 -15.44 3.55 C-14.69 3.1 -13.94 2.65 -13.18 2.19 C-12.21 1.6 -12.21 1.6 -11.23 1.01 C-7.29 -1.32 -4.38 -0.65 0 0 Z " fill="#FCFCFC" transform="translate(805.625,640.9375)"/>
<path d="M0 0 C0.99 -0.33 1.98 -0.66 3 -1 C7.92 -1.23 10.65 -1.29 15 1 C2.64 7.21 -9.76 13.34 -22.18 19.43 C-24.34 20.49 -26.49 21.55 -28.65 22.61 C-31.79 24.16 -34.94 25.71 -38.09 27.25 C-39.54 27.97 -39.54 27.97 -41.02 28.7 C-41.91 29.13 -42.8 29.57 -43.71 30.02 C-44.49 30.4 -45.28 30.78 -46.08 31.18 C-48 32 -48 32 -50 32 C-50 32.66 -50 33.32 -50 34 C-54.95 33.67 -59.9 33.34 -65 33 C-65 32.01 -65 31.02 -65 30 C-47.62 20.71 -29.96 12.06 -12.2 3.51 C-8.43 1.7 -8.43 1.7 -4.74 -0.28 C-3 -1 -3 -1 0 0 Z " fill="#FDFDFD" transform="translate(742,700)"/>
<path d="M0 0 C1.82 0.86 1.82 0.86 3.82 3.86 C-4.7 9.58 -13.23 15.29 -21.89 20.79 C-25.35 22.99 -28.72 25.23 -32.02 27.66 C-40.61 33.89 -40.61 33.89 -45.23 33.82 C-47.84 33.09 -49.91 32.34 -52.18 30.86 C-52.51 30.2 -52.84 29.54 -53.18 28.86 C-51.25 27.59 -49.33 26.33 -47.4 25.06 C-46.8 24.66 -46.2 24.27 -45.58 23.86 C-42.27 21.69 -38.97 19.52 -35.66 17.36 C-34.99 16.93 -34.33 16.5 -33.65 16.06 C-32.33 15.19 -31 14.33 -29.67 13.47 C-26.1 11.13 -22.56 8.77 -19.04 6.34 C-7.56 -1.47 -7.56 -1.47 0 0 Z " fill="#FDFDFD" transform="translate(705.1796875,739.13671875)"/>
<path d="M0 0 C2.89 1.31 4.99 2.72 7.24 4.94 C7.83 5.52 8.42 6.1 9.03 6.7 C24.63 22.45 24.63 22.45 25 34 C21.43 36.38 19.11 36.49 15 36 C4.6 33.91 4.6 33.91 2 30 C2.37 29.41 2.75 28.82 3.13 28.21 C3.6 27.42 4.08 26.63 4.56 25.81 C5.04 25.04 5.51 24.26 6 23.46 C7.26 20.35 7.24 19.11 6 16 C3.5 13.45 3.5 13.45 0.44 11.19 C-0.57 10.4 -1.59 9.61 -2.63 8.79 C-3.41 8.2 -4.19 7.61 -5 7 C-3.64 4.14 -2.35 2.14 0 0 Z " fill="#F18735" transform="translate(533,840)"/>
<path d="M0 0 C1.69 0.46 1.69 0.46 3.41 0.93 C4.53 1.22 5.65 1.51 6.81 1.81 C9.36 2.63 11.58 3.51 13.91 4.8 C13.91 5.46 13.91 6.12 13.91 6.8 C14.57 6.8 15.23 6.8 15.91 6.8 C15.91 7.46 15.91 8.12 15.91 8.8 C14.85 8.45 13.8 8.1 12.72 7.74 C9 6.83 7.45 6.68 3.91 7.8 C3.15 7.99 2.4 8.18 1.62 8.38 C-2.4 10.49 -4.36 13.75 -6.91 17.43 C-7.41 18.14 -7.91 18.84 -8.43 19.57 C-9.66 21.31 -10.88 23.06 -12.09 24.8 C-12.42 24.14 -12.75 23.48 -13.09 22.8 C-14.08 22.47 -15.07 22.14 -16.09 21.8 C-16.9 19.95 -16.9 19.95 -17.09 17.8 C-15.62 15.3 -14.15 13.11 -12.41 10.8 C-11.73 9.88 -11.73 9.88 -11.05 8.94 C-9.77 7.2 -8.44 5.5 -7.09 3.8 C-6.14 2.56 -6.14 2.56 -5.17 1.3 C-3.09 -0.2 -3.09 -0.2 0 0 Z " fill="#FDFDFD" transform="translate(484.09375,811.1953125)"/>
<path d="M0 0 C7.44 4.93 7.44 4.93 9.25 8.38 C8.87 12.39 7 15.54 5 19 C3.52 18.55 2.04 18.09 0.56 17.62 C-0.67 17.24 -0.67 17.24 -1.93 16.85 C-4 16 -4 16 -5 14 C-3.85 11.7 -2.49 9.57 -1.13 7.39 C0.14 4.71 0.21 2.92 0 0 Z " fill="#FDFDFD" transform="translate(540,856)"/>
<path d="M0 0 C7.75 0.75 7.75 0.75 10 3 C9.62 5.12 9.62 5.12 9 7 C4.87 6.39 1.67 4.96 -2 3 C-1.34 2.01 -0.68 1.02 0 0 Z " fill="#ED8534" transform="translate(489,817)"/>
<path d="M0 0 C0.66 0 1.32 0 2 0 C3.51 1.68 3.51 1.68 5.12 3.88 C5.66 4.59 6.2 5.31 6.76 6.05 C8 8 8 8 8 10 C8.66 10.33 9.32 10.66 10 11 C9.34 11.66 8.68 12.32 8 13 C1.55 6.73 1.55 6.73 -1 3 C-0.67 2.01 -0.34 1.02 0 0 Z " fill="#FCFAF8" transform="translate(593,652)"/>
</svg>
