<svg aria-hidden="true" style="position: absolute; width: 0; height: 0; overflow: hidden;" version="1.1" xmlns="http://www.w3.org/2000/svg" xmlns:xlink="http://www.w3.org/1999/xlink">
<defs>
<symbol id="icon-feather" viewBox="0 0 32 32">
<path d="M31.025 0.875c-0.025 0.075-0.025 0.075-0.075 0.101-0.021 0.007-0.042 0.015-0.064 0.023-0.081 0.030-0.159 0.061-0.236 0.102-0.075 0.039-0.151 0.071-0.23 0.101-0.065 0.026-0.122 0.050-0.183 0.086-0.056 0.034-0.105 0.054-0.166 0.077-0.198 0.077-0.383 0.183-0.57 0.283-0.043 0.023-0.087 0.045-0.131 0.067-0.082 0.041-0.162 0.087-0.241 0.133-0.031 0.018-0.062 0.035-0.093 0.053-0.052 0.030-0.105 0.060-0.157 0.091-0.020 0.011-0.040 0.023-0.060 0.034-0.017 0.010-0.034 0.019-0.051 0.030-0.044 0.020-0.044 0.020-0.119 0.020 0 0.017 0 0.033 0 0.050-0.041 0.008-0.082 0.017-0.125 0.025 0 0.017 0 0.033 0 0.050-0.017 0.009-0.034 0.018-0.051 0.027-0.273 0.142-0.273 0.142-0.526 0.314-0.047 0.033-0.047 0.033-0.122 0.033 0 0.017 0 0.033 0 0.050-0.058 0.040-0.116 0.076-0.177 0.112-0.037 0.023-0.074 0.046-0.111 0.068-0.028 0.017-0.028 0.017-0.057 0.035-0.466 0.289-0.928 0.611-1.358 0.951-0.047 0.033-0.047 0.033-0.097 0.033 0 0.017 0 0.033 0 0.050-0.163 0.132-0.346 0.207-0.543 0.272-0.068 0.023-0.132 0.049-0.198 0.080-0.11 0.051-0.224 0.088-0.34 0.125-0.057 0.019-0.112 0.040-0.167 0.064-0.075 0.033-0.15 0.059-0.228 0.085-0.043 0.019-0.085 0.037-0.128 0.056-0.066 0.027-0.133 0.048-0.201 0.071-0.229 0.076-0.456 0.155-0.678 0.247-0.093 0.036-0.188 0.069-0.282 0.101-0.131 0.045-0.259 0.094-0.385 0.153-0.079 0.034-0.162 0.055-0.245 0.079-0.067 0.022-0.123 0.053-0.181 0.093 0.015 0.003 0.029 0.006 0.044 0.009 0.087 0.019 0.172 0.037 0.256 0.067 0.078 0.024 0.151 0.031 0.231 0.038 0.104 0.016 0.204 0.045 0.305 0.074 0.089 0.024 0.174 0.043 0.266 0.050 0.096 0.011 0.148 0.024 0.222 0.086 0 0.025 0 0.050 0 0.075-0.134 0.125-0.134 0.125-0.2 0.125-0.008 0.025-0.017 0.050-0.025 0.075-0.017 0-0.033 0-0.050 0 0 0.016 0 0.033 0 0.050-0.043 0.040-0.087 0.077-0.133 0.114-0.025 0.020-0.049 0.040-0.075 0.061-0.067 0.050-0.067 0.050-0.142 0.075-0.008 0.025-0.017 0.050-0.025 0.075-0.017 0-0.033 0-0.050 0 0 0.016 0 0.033 0 0.050-0.033 0.034-0.033 0.034-0.081 0.074-0.067 0.057-0.133 0.114-0.197 0.174-0.014 0.013-0.027 0.025-0.041 0.038-0.027 0.025-0.053 0.050-0.080 0.075-0.096 0.089-0.096 0.089-0.151 0.089 0 0.016 0 0.033 0 0.050-0.041 0.040-0.041 0.040-0.095 0.086-0.075 0.063-0.075 0.063-0.146 0.132-0.034 0.032-0.034 0.032-0.084 0.032-0.007 0.016-0.014 0.032-0.020 0.048-0.030 0.051-0.030 0.051-0.105 0.077 0 0.016 0 0.033 0 0.050-0.037 0.037-0.037 0.037-0.087 0.080-0.018 0.016-0.037 0.031-0.055 0.047s-0.038 0.032-0.057 0.048c-0.129 0.111-0.252 0.224-0.37 0.346-0.023 0.024-0.023 0.024-0.047 0.049-0.015 0.015-0.029 0.030-0.044 0.046-0.039 0.034-0.039 0.034-0.089 0.034 0 0.016 0 0.033 0 0.050-0.017 0-0.033 0-0.050 0-0.008 0.025-0.017 0.050-0.025 0.075-0.017 0-0.033 0-0.050 0 0 0.017 0 0.033 0 0.050-0.017 0-0.033 0-0.050 0-0.008 0.025-0.017 0.050-0.025 0.075-0.017 0-0.033 0-0.050 0 0 0.017 0 0.033 0 0.050-0.017 0-0.033 0-0.050 0-0.008 0.025-0.017 0.050-0.025 0.075-0.017 0-0.033 0-0.050 0 0 0.017 0 0.033 0 0.050-0.034 0.033-0.034 0.033-0.082 0.073-0.127 0.107-0.243 0.225-0.359 0.342-0.039 0.040-0.079 0.079-0.118 0.119-0.112 0.113-0.223 0.225-0.335 0.338-0.069 0.069-0.137 0.138-0.206 0.207-0.026 0.026-0.052 0.053-0.078 0.079-0.036 0.037-0.073 0.073-0.109 0.11-0.021 0.021-0.041 0.042-0.063 0.063-0.050 0.044-0.050 0.044-0.1 0.044 0 0.017 0 0.033 0 0.050-0.017 0-0.033 0-0.050 0-0.008 0.025-0.017 0.050-0.025 0.075-0.017 0-0.033 0-0.050 0 0 0.017 0 0.033 0 0.050-0.017 0-0.033 0-0.050 0-0.008 0.025-0.017 0.050-0.025 0.075-0.017 0-0.033 0-0.050 0 0 0.017 0 0.033 0 0.050-0.039 0.039-0.039 0.039-0.092 0.083-0.081 0.069-0.158 0.14-0.233 0.217-1.5 1.5-1.5 1.5-1.559 1.558-0.066 0.068-0.127 0.138-0.187 0.211-0.046 0.049-0.093 0.091-0.144 0.135-0.149 0.128-0.284 0.271-0.421 0.411-0.020 0.021-0.041 0.041-0.062 0.063-0.018 0.019-0.037 0.037-0.056 0.057-0.046 0.041-0.046 0.041-0.096 0.041-0.007 0.016-0.014 0.032-0.020 0.049-0.030 0.052-0.030 0.052-0.105 0.076 0 0.017 0 0.033 0 0.050-0.035 0.040-0.035 0.040-0.075 0.075-0.017 0-0.033 0-0.050 0 0 0.017 0 0.033 0 0.050-0.035 0.040-0.035 0.040-0.075 0.075-0.017 0-0.033 0-0.050 0 0 0.017 0 0.033 0 0.050-0.037 0.036-0.037 0.036-0.088 0.078-0.096 0.082-0.184 0.168-0.271 0.259-0.041 0.037-0.041 0.037-0.091 0.037-0.008 0.025-0.017 0.050-0.025 0.075-0.017 0-0.033 0-0.050 0 0 0.017 0 0.033 0 0.050-0.017 0-0.033 0-0.050 0 0 0.017 0 0.033 0 0.050-0.034 0.034-0.034 0.034-0.083 0.073-0.091 0.076-0.175 0.158-0.258 0.242-0.232 0.233-0.453 0.348-0.762 0.457-0.109 0.041-0.214 0.092-0.319 0.142-0.086 0.040-0.175 0.075-0.263 0.11-0.076 0.031-0.151 0.066-0.226 0.101-0.124 0.058-0.248 0.107-0.377 0.152-0.074 0.028-0.142 0.062-0.212 0.098-0.075 0.037-0.152 0.066-0.229 0.097-0.080 0.032-0.159 0.066-0.238 0.1-0.155 0.067-0.311 0.13-0.469 0.191-0.099 0.041-0.194 0.088-0.289 0.137 0.080 0.001 0.161 0.001 0.241 0.002 0.023 0 0.045 0.001 0.069 0.001 0.117 0.001 0.226-0.006 0.341-0.027 0.073-0.007 0.146-0.011 0.219-0.014 0.021-0.001 0.041-0.002 0.062-0.003 0.215-0.010 0.429-0.010 0.644-0.008 0 0.033 0 0.066 0 0.1-0.017 0-0.033 0-0.050 0 0 0.017 0 0.033 0 0.050-0.050 0.034-0.1 0.067-0.15 0.1-0.018 0.018-0.037 0.037-0.056 0.056-0.014 0.014-0.029 0.029-0.044 0.044-0.017 0-0.033 0-0.050 0 0 0.017 0 0.033 0 0.050-0.053 0.049-0.053 0.049-0.122 0.103-0.023 0.018-0.045 0.036-0.069 0.055-0.059 0.042-0.059 0.042-0.11 0.042 0 0.017 0 0.033 0 0.050-0.053 0.045-0.106 0.088-0.161 0.13-0.016 0.012-0.032 0.024-0.048 0.037-0.032 0.025-0.064 0.049-0.096 0.074-0.077 0.059-0.152 0.12-0.228 0.181-0.042 0.029-0.042 0.029-0.092 0.029 0 0.017 0 0.033 0 0.050-0.042 0.038-0.042 0.038-0.097 0.078-0.018 0.014-0.036 0.027-0.054 0.041-0.049 0.031-0.049 0.031-0.099 0.031 0 0.017 0 0.033 0 0.050-0.056 0.045-0.113 0.087-0.172 0.128-0.016 0.012-0.033 0.023-0.049 0.035-0.122 0.087-0.122 0.087-0.179 0.087 0 0.017 0 0.033 0 0.050-0.11 0.075-0.11 0.075-0.175 0.075 0 0.017 0 0.033 0 0.050-0.11 0.075-0.11 0.075-0.175 0.075 0 0.017 0 0.033 0 0.050-0.047 0.038-0.047 0.038-0.11 0.078-0.020 0.014-0.040 0.027-0.062 0.041-0.054 0.031-0.054 0.031-0.104 0.031 0 0.017 0 0.033 0 0.050-0.039 0.022-0.039 0.022-0.078 0.044-0.062 0.035-0.121 0.072-0.18 0.113-0.067 0.044-0.067 0.044-0.117 0.044 0 0.017 0 0.033 0 0.050-0.036 0.020-0.036 0.020-0.073 0.041-0.096 0.055-0.186 0.116-0.276 0.18-0.050 0.029-0.050 0.029-0.126 0.029 0 0.017 0 0.033 0 0.050-0.191 0.143-0.368 0.141-0.6 0.134-0.034-0-0.068-0.001-0.101-0.001-0.245-0.004-0.245-0.004-0.274-0.033-0.018-0.123 0.039-0.203 0.103-0.302 0.069-0.11 0.135-0.22 0.191-0.337 0.17-0.35 0.383-0.683 0.598-1.006 0.045-0.068 0.083-0.127 0.108-0.205 0.017 0 0.033 0 0.050 0 0.009-0.026 0.009-0.026 0.018-0.052 0.039-0.090 0.090-0.168 0.145-0.25 0.088-0.133 0.088-0.133 0.162-0.274 0.017 0 0.033 0 0.050 0 0.006-0.017 0.011-0.033 0.017-0.050 0.043-0.097 0.1-0.18 0.159-0.267 0.079-0.113 0.079-0.113 0.149-0.233 0.017 0 0.033 0 0.050 0 0.006-0.018 0.012-0.035 0.019-0.053 0.036-0.082 0.078-0.15 0.131-0.222 0.017 0 0.033 0 0.050 0 0.008-0.020 0.015-0.039 0.024-0.059 0.027-0.066 0.027-0.066 0.052-0.116 0.017 0 0.033 0 0.050 0 0.008-0.020 0.015-0.039 0.024-0.059 0.027-0.066 0.027-0.066 0.052-0.116 0.017 0 0.033 0 0.050 0 0.005-0.017 0.010-0.033 0.015-0.050 0.047-0.102 0.109-0.192 0.184-0.275 0.017 0 0.033 0 0.050 0 0-0.025 0-0.050 0-0.075 0.017 0 0.033 0 0.050 0 0.009-0.020 0.009-0.020 0.019-0.040 0.039-0.074 0.082-0.142 0.131-0.21 0.017 0 0.033 0 0.050 0 0.006-0.018 0.012-0.036 0.018-0.053 0.038-0.085 0.087-0.143 0.148-0.214 0.023-0.027 0.045-0.053 0.068-0.079 0.017-0.020 0.017-0.020 0.034-0.040 0.107-0.126 0.211-0.255 0.305-0.392 0.018-0.024 0.035-0.047 0.053-0.072 0.017 0 0.033 0 0.050 0 0.007-0.015 0.014-0.030 0.021-0.045 0.028-0.053 0.058-0.094 0.098-0.139 0.020-0.023 0.020-0.023 0.040-0.046 0.014-0.015 0.027-0.031 0.041-0.047 0.027-0.031 0.054-0.062 0.081-0.093 0.012-0.014 0.024-0.027 0.036-0.041 0.037-0.043 0.037-0.043 0.082-0.114 0.017 0 0.033 0 0.050 0 0-0.017 0-0.033 0-0.050 0.017 0 0.033 0 0.050 0 0.007-0.014 0.013-0.029 0.020-0.044 0.033-0.061 0.071-0.107 0.118-0.158 0.052-0.057 0.095-0.11 0.137-0.174 0.017 0 0.033 0 0.050 0 0.010-0.022 0.010-0.022 0.020-0.044 0.030-0.058 0.062-0.107 0.105-0.156 0.017 0 0.033 0 0.050 0 0-0.017 0-0.033 0-0.050 0.029-0.030 0.057-0.059 0.088-0.087 0.056-0.056 0.104-0.117 0.154-0.179 0.011-0.011 0.022-0.023 0.033-0.034 0.017 0 0.033 0 0.050 0 0.005-0.013 0.010-0.027 0.015-0.040 0.049-0.085 0.116-0.145 0.186-0.213 0.098-0.089 0.098-0.089 0.174-0.197 0.017 0 0.033 0 0.050 0 0.008-0.025 0.017-0.050 0.025-0.075 0.017 0 0.033 0 0.050 0 0-0.017 0-0.033 0-0.050 0.017 0 0.033 0 0.050 0 0.008-0.025 0.017-0.050 0.025-0.075 0.017 0 0.033 0 0.050 0 0-0.017 0-0.033 0-0.050 0.017 0 0.033 0 0.050 0 0.008-0.025 0.017-0.050 0.025-0.075 0.017 0 0.033 0 0.050 0 0-0.017 0-0.033 0-0.050 0.017 0 0.033 0 0.050 0 0.008-0.025 0.017-0.050 0.025-0.075 0.017 0 0.033 0 0.050 0 0-0.017 0-0.033 0-0.050 0.017 0 0.033 0 0.050 0 0.008-0.025 0.017-0.050 0.025-0.075 0.017 0 0.033 0 0.050 0 0-0.017 0-0.033 0-0.050 0.017 0 0.033 0 0.050 0 0.008-0.025 0.017-0.050 0.025-0.075 0.017 0 0.033 0 0.050 0 0-0.017 0-0.033 0-0.050 0.036-0.035 0.036-0.035 0.086-0.076 0.12-0.102 0.229-0.212 0.339-0.323 0.378-0.384 0.378-0.384 0.5-0.425 0-0.017 0-0.033 0-0.050 0.137-0.125 0.137-0.125 0.2-0.125 0.007-0.016 0.014-0.032 0.020-0.049 0.030-0.052 0.030-0.052 0.105-0.076 0-0.017 0-0.033 0-0.050 0.039-0.040 0.039-0.040 0.092-0.085 0.018-0.015 0.036-0.031 0.055-0.047 0.017-0.014 0.035-0.029 0.053-0.044 0.024-0.020 0.047-0.040 0.072-0.061 0.053-0.039 0.053-0.039 0.103-0.039 0-0.017 0-0.033 0-0.050 0.039-0.035 0.080-0.069 0.122-0.101 0.122-0.098 0.238-0.2 0.353-0.307 0.050-0.041 0.050-0.041 0.1-0.041 0-0.017 0-0.033 0-0.050 0.053-0.049 0.053-0.049 0.122-0.103 0.023-0.018 0.045-0.036 0.069-0.055 0.059-0.042 0.059-0.042 0.11-0.042 0-0.017 0-0.033 0-0.050 0.046-0.040 0.046-0.040 0.106-0.086 0.020-0.015 0.040-0.030 0.060-0.045 0.020-0.014 0.039-0.029 0.059-0.044 0.018-0.014 0.036-0.028 0.054-0.043 0.046-0.032 0.046-0.032 0.096-0.032 0-0.017 0-0.033 0-0.050 0.042-0.038 0.042-0.038 0.097-0.078 0.018-0.013 0.036-0.027 0.054-0.041 0.049-0.031 0.049-0.031 0.099-0.031 0-0.016 0-0.033 0-0.050 0.044-0.037 0.091-0.072 0.137-0.106 0.027-0.020 0.055-0.040 0.082-0.061 0.026-0.019 0.053-0.038 0.080-0.058 0.054-0.042 0.108-0.083 0.162-0.125 0.038-0.025 0.038-0.025 0.088-0.025 0-0.016 0-0.033 0-0.050 0.044-0.036 0.088-0.070 0.134-0.103 0.025-0.018 0.050-0.036 0.076-0.055 0.065-0.042 0.065-0.042 0.115-0.042 0-0.016 0-0.033 0-0.050 0.064-0.058 0.087-0.075 0.175-0.075 0-0.016 0-0.033 0-0.050 0.047-0.038 0.047-0.038 0.11-0.078 0.020-0.013 0.041-0.027 0.061-0.041 0.054-0.031 0.054-0.031 0.104-0.031 0-0.016 0-0.033 0-0.050 0.11-0.075 0.11-0.075 0.175-0.075 0-0.016 0-0.033 0-0.050 0.11-0.075 0.11-0.075 0.175-0.075 0-0.016 0-0.033 0-0.050 0.025 0 0.049 0 0.075 0 0-0.016 0-0.033 0-0.050 0.064-0.058 0.087-0.075 0.175-0.075 0-0.016 0-0.033 0-0.050 0.049-0.036 0.049-0.036 0.119-0.078 0.206-0.128 0.407-0.26 0.602-0.403 0.099-0.073 0.198-0.135 0.305-0.194 0.027-0.019 0.053-0.037 0.081-0.056 0.069-0.044 0.069-0.044 0.144-0.044 0-0.016 0-0.033 0-0.050 0.073-0.051 0.11-0.075 0.2-0.075 0-0.016 0-0.033 0-0.050 0.058-0.033 0.116-0.066 0.175-0.1-0.014-0.099-0.043-0.16-0.102-0.24-0.073-0.101-0.073-0.101-0.073-0.184-0.017 0-0.033 0-0.050 0-0.020-0.035-0.041-0.071-0.061-0.106-0.011-0.020-0.023-0.040-0.034-0.060-0.027-0.054-0.043-0.1-0.055-0.159-0.017 0-0.033 0-0.050 0-0.033-0.058-0.066-0.115-0.1-0.175-0.095 0.035-0.177 0.079-0.263 0.131-0.026 0.016-0.053 0.032-0.080 0.049-0.029 0.018-0.057 0.035-0.085 0.053-0.015 0.009-0.029 0.018-0.044 0.027-0.23 0.142-0.456 0.291-0.678 0.446-0.104 0.072-0.209 0.139-0.316 0.206-0.079 0.051-0.156 0.105-0.233 0.16-0.061 0.043-0.122 0.085-0.183 0.126-0.231 0.157-0.458 0.317-0.68 0.486-0.253 0.191-0.253 0.191-0.313 0.191 0 0.016 0 0.033 0 0.050-0.044 0.036-0.088 0.070-0.134 0.103-0.025 0.018-0.050 0.036-0.076 0.055-0.065 0.042-0.065 0.042-0.115 0.042 0 0.016 0 0.033 0 0.050-0.052 0.040-0.104 0.077-0.158 0.114-0.186 0.13-0.36 0.271-0.534 0.417-0.058 0.043-0.058 0.043-0.108 0.043 0 0.016 0 0.033 0 0.050-0.046 0.040-0.046 0.040-0.106 0.086-0.020 0.015-0.040 0.030-0.060 0.045-0.020 0.014-0.039 0.029-0.059 0.044-0.018 0.014-0.036 0.029-0.054 0.043-0.046 0.032-0.046 0.032-0.096 0.032 0 0.016 0 0.033 0 0.050-0.042 0.038-0.042 0.038-0.097 0.078-0.018 0.013-0.036 0.027-0.054 0.041-0.049 0.031-0.049 0.031-0.099 0.031 0 0.016 0 0.033 0 0.050-0.137 0.125-0.137 0.125-0.2 0.125 0 0.016 0 0.033 0 0.050-0.047 0.042-0.047 0.042-0.108 0.089-0.030 0.023-0.030 0.023-0.061 0.047-0.056 0.039-0.056 0.039-0.132 0.064 0 0.017 0 0.033 0 0.050-0.037 0.038-0.037 0.038-0.085 0.078-0.015 0.014-0.031 0.027-0.047 0.041-0.043 0.031-0.043 0.031-0.093 0.031 0 0.017 0 0.033 0 0.050-0.086 0.075-0.086 0.075-0.15 0.075 0 0.017 0 0.033 0 0.050-0.017 0-0.033 0-0.050 0 0 0.017 0 0.033 0 0.050-0.041 0.042-0.041 0.042-0.095 0.089-0.018 0.015-0.036 0.031-0.054 0.047-0.051 0.039-0.051 0.039-0.126 0.064 0 0.017 0 0.033 0 0.050-0.037 0.038-0.037 0.038-0.085 0.078-0.015 0.014-0.031 0.027-0.047 0.041-0.043 0.031-0.043 0.031-0.093 0.031 0 0.017 0 0.033 0 0.050-0.041 0.040-0.041 0.040-0.095 0.086-0.075 0.063-0.075 0.063-0.146 0.132-0.034 0.032-0.034 0.032-0.084 0.032-0.008 0.025-0.017 0.050-0.025 0.075-0.017 0-0.033 0-0.050 0 0 0.017 0 0.033 0 0.050-0.017 0-0.033 0-0.050 0 0 0.017 0 0.033 0 0.050-0.035 0.034-0.035 0.034-0.084 0.075-0.132 0.112-0.253 0.234-0.376 0.356-0.024 0.024-0.049 0.049-0.073 0.073-0.050 0.050-0.101 0.101-0.152 0.152-0.065 0.065-0.13 0.13-0.194 0.194-0.050 0.050-0.1 0.1-0.15 0.15-0.036 0.036-0.071 0.071-0.107 0.106-0.021 0.021-0.043 0.043-0.065 0.065-0.019 0.019-0.038 0.038-0.057 0.057-0.045 0.044-0.045 0.044-0.069 0.097-0.017 0-0.033 0-0.050 0 0 0.017 0 0.033 0 0.050-0.017 0-0.033 0-0.050 0-0.008 0.025-0.017 0.050-0.025 0.075-0.017 0-0.033 0-0.050 0-0.007 0.015-0.013 0.029-0.020 0.044-0.033 0.060-0.070 0.099-0.12 0.146-0.065 0.061-0.065 0.061-0.111 0.134-0.017 0-0.033 0-0.050 0-0.007 0.014-0.013 0.029-0.020 0.044-0.033 0.060-0.069 0.102-0.117 0.152-0.017 0.018-0.033 0.035-0.050 0.053-0.026 0.027-0.026 0.027-0.053 0.055-0.034 0.036-0.069 0.072-0.103 0.108-0.015 0.016-0.030 0.031-0.046 0.048-0.039 0.040-0.039 0.040-0.062 0.091-0.017 0-0.033 0-0.050 0-0.006 0.014-0.012 0.027-0.018 0.041-0.040 0.075-0.091 0.137-0.145 0.203-0.020 0.024-0.040 0.049-0.060 0.075-0.017 0.019-0.034 0.037-0.052 0.057-0.017 0-0.033 0-0.050 0-0.010 0.022-0.010 0.022-0.020 0.044-0.030 0.058-0.062 0.107-0.105 0.156-0.017 0-0.033 0-0.050 0-0.007 0.014-0.014 0.028-0.020 0.043-0.031 0.059-0.066 0.11-0.105 0.163-0.019 0.027-0.019 0.027-0.039 0.053-0.012 0.013-0.024 0.027-0.036 0.040-0.017 0-0.033 0-0.050 0-0.009 0.020-0.009 0.020-0.019 0.040-0.039 0.074-0.082 0.142-0.131 0.21-0.017 0-0.033 0-0.050 0-0.006 0.014-0.012 0.027-0.019 0.041-0.038 0.072-0.084 0.136-0.131 0.203-0.018 0.024-0.035 0.049-0.053 0.075-0.015 0.019-0.031 0.037-0.047 0.057-0.017 0-0.033 0-0.050 0-0.009 0.020-0.009 0.020-0.019 0.040-0.039 0.074-0.082 0.142-0.131 0.21-0.017 0-0.033 0-0.050 0-0.005 0.017-0.010 0.033-0.015 0.050-0.047 0.102-0.109 0.192-0.184 0.275-0.017 0-0.033 0-0.050 0-0.005 0.017-0.011 0.034-0.017 0.052-0.043 0.095-0.101 0.168-0.165 0.25-0.137 0.18-0.268 0.363-0.396 0.549-0.079 0.113-0.159 0.224-0.243 0.332-0.034 0.046-0.034 0.046-0.055 0.118-0.017 0-0.033 0-0.050 0-0.009 0.025-0.009 0.025-0.018 0.052-0.039 0.089-0.091 0.165-0.146 0.245-0.103 0.151-0.199 0.305-0.289 0.464-0.023 0.039-0.047 0.077-0.072 0.114-0.017 0-0.033 0-0.050 0-0.004 0.021-0.004 0.021-0.008 0.043-0.019 0.065-0.046 0.114-0.082 0.171-0.020 0.033-0.020 0.033-0.041 0.066-0.044 0.070-0.089 0.14-0.134 0.21-0.070 0.109-0.13 0.218-0.184 0.334-0.017 0-0.033 0-0.050 0-0.004 0.021-0.004 0.021-0.008 0.042-0.019 0.067-0.048 0.122-0.082 0.183-0.014 0.024-0.027 0.049-0.041 0.074-0.042 0.073-0.085 0.146-0.128 0.218-0.079 0.134-0.149 0.271-0.217 0.41-0.071 0.143-0.146 0.283-0.223 0.422-0.025-0.008-0.050-0.017-0.075-0.025-0.001-0.165-0.001-0.329-0.001-0.494-0-0.056-0-0.112-0.001-0.168-0-0.081-0-0.161-0-0.241 0-0.025-0-0.050-0-0.076 0-0.119 0.005-0.229 0.028-0.346 0.005-0.049 0.009-0.099 0.013-0.149 0.002-0.027 0.004-0.055 0.006-0.083 0.004-0.057 0.008-0.114 0.013-0.172 0.002-0.027 0.004-0.055 0.006-0.083 0.003-0.037 0.003-0.037 0.005-0.075 0.007-0.064 0.007-0.064 0.032-0.139 0.003-0.041 0.006-0.082 0.008-0.123 0.013-0.168 0.045-0.33 0.081-0.494 0.021-0.1 0.039-0.198 0.049-0.299 0.010-0.1 0.032-0.192 0.059-0.288 0.033-0.12 0.063-0.239 0.087-0.361 0.077-0.369 0.194-0.729 0.316-1.085 0.011-0.032 0.021-0.064 0.031-0.096 0.056-0.172 0.116-0.339 0.188-0.505 0.033-0.078 0.063-0.157 0.092-0.236 0.052-0.136 0.113-0.263 0.179-0.392 0.031-0.063 0.057-0.125 0.082-0.191 0.048-0.125 0.111-0.242 0.174-0.359 0.089-0.163 0.171-0.329 0.254-0.496 0.017-0.033 0.033-0.067 0.050-0.1 0.017 0 0.033 0 0.050 0 0.008-0.041 0.017-0.082 0.025-0.125 0.017 0 0.033 0 0.050 0 0.003-0.014 0.005-0.027 0.008-0.041 0.021-0.071 0.053-0.13 0.089-0.194 0.013-0.023 0.025-0.046 0.039-0.070 0.013-0.023 0.026-0.045 0.039-0.069s0.026-0.047 0.039-0.071c0.012-0.018 0.024-0.036 0.036-0.054 0.017 0 0.033 0 0.050 0 0.003-0.015 0.006-0.030 0.009-0.045 0.025-0.089 0.082-0.161 0.134-0.236 0.023-0.034 0.046-0.067 0.068-0.101 0.011-0.016 0.022-0.032 0.033-0.049 0.037-0.055 0.071-0.111 0.105-0.168 0.017-0.025 0.033-0.050 0.050-0.076 0.017 0 0.033 0 0.050 0 0.007-0.018 0.014-0.036 0.020-0.055 0.030-0.070 0.062-0.132 0.105-0.195 0.017 0 0.033 0 0.050 0 0.007-0.014 0.014-0.029 0.021-0.044 0.029-0.055 0.060-0.101 0.098-0.151 0.013-0.017 0.026-0.035 0.040-0.053s0.027-0.036 0.041-0.054 0.054-0.072 0.081-0.107c0.012-0.016 0.024-0.031 0.036-0.047 0.029-0.039 0.056-0.079 0.082-0.119 0.017 0 0.033 0 0.050 0 0.010-0.022 0.010-0.022 0.020-0.044 0.030-0.058 0.062-0.107 0.105-0.156 0.017 0 0.033 0 0.050 0 0.007-0.014 0.014-0.028 0.021-0.043 0.030-0.058 0.063-0.11 0.1-0.163 0.012-0.018 0.024-0.035 0.037-0.053 0.043-0.040 0.043-0.040 0.111-0.046 0.028 0.003 0.028 0.003 0.057 0.006 0.018 0.078 0.036 0.155 0.053 0.232 0.014 0.059 0.027 0.117 0.041 0.176 0.037 0.154 0.067 0.308 0.091 0.465 0.036 0.232 0.036 0.232 0.114 0.452 0.063-0.113 0.089-0.236 0.123-0.36 0.043-0.154 0.089-0.302 0.152-0.45 0.041-0.109 0.070-0.222 0.102-0.335 0.022-0.078 0.049-0.152 0.079-0.226 0.027-0.075 0.047-0.15 0.068-0.226 0.035-0.125 0.076-0.243 0.127-0.362 0.041-0.109 0.070-0.221 0.101-0.333 0.037-0.128 0.075-0.246 0.149-0.357 0.017 0 0.033 0 0.050 0 0-0.016 0-0.033 0-0.050 0.017 0 0.033 0 0.050 0 0-0.016 0-0.033 0-0.050 0.039-0.040 0.039-0.040 0.092-0.085 0.018-0.015 0.036-0.031 0.055-0.047 0.018-0.014 0.035-0.029 0.053-0.044 0.024-0.020 0.047-0.040 0.072-0.061 0.053-0.039 0.053-0.039 0.103-0.039 0-0.016 0-0.033 0-0.050 0.086-0.075 0.086-0.075 0.15-0.075 0-0.016 0-0.033 0-0.050 0.051-0.044 0.101-0.085 0.155-0.125 0.016-0.012 0.031-0.024 0.047-0.037 0.033-0.025 0.066-0.051 0.098-0.076 0.047-0.036 0.094-0.073 0.14-0.11 0.028-0.022 0.057-0.045 0.085-0.067 0.025-0.020 0.051-0.040 0.078-0.061 0.065-0.045 0.121-0.075 0.196-0.1 0-0.016 0-0.033 0-0.050 0.057-0.045 0.115-0.087 0.175-0.128 0.025-0.018 0.025-0.018 0.050-0.035 0.041-0.029 0.083-0.058 0.124-0.087 0.048 0.015 0.048 0.015 0.1 0.050 0.020 0.074 0.020 0.074 0.030 0.162 0.010 0.11 0.010 0.11 0.045 0.213 0.009 0.048 0.016 0.097 0.024 0.145 0.004 0.029 0.008 0.058 0.013 0.088 0.009 0.061 0.018 0.123 0.027 0.184 0.004 0.029 0.008 0.058 0.013 0.088 0.004 0.027 0.008 0.053 0.012 0.081 0.008 0.064 0.008 0.064 0.037 0.114 0.013 0.079 0.024 0.159 0.035 0.239 0.016 0.090 0.039 0.174 0.065 0.261 0.115-0.186 0.229-0.373 0.344-0.559 0.011-0.019 0.023-0.037 0.035-0.056 0.050-0.082 0.099-0.163 0.146-0.246 0.059-0.104 0.122-0.205 0.185-0.306 0.076-0.123 0.151-0.247 0.219-0.375 0.065-0.122 0.139-0.236 0.214-0.351 0.072-0.111 0.136-0.225 0.198-0.342 0.044-0.080 0.096-0.154 0.147-0.23 0.041-0.064 0.077-0.13 0.113-0.197 0.173-0.32 0.173-0.32 0.35-0.39 0.096-0.040 0.186-0.091 0.277-0.14 0.543-0.288 0.543-0.288 0.794-0.384 0.050-0.021 0.095-0.044 0.142-0.072 0.085-0.051 0.174-0.086 0.266-0.122 0.080-0.031 0.159-0.066 0.238-0.1 0.141-0.061 0.284-0.119 0.427-0.175 0.081-0.032 0.162-0.066 0.241-0.103 0.125-0.057 0.254-0.1 0.383-0.144 0.099-0.034 0.197-0.070 0.294-0.11 0.080-0.033 0.159-0.059 0.242-0.083 0.078-0.022 0.145-0.047 0.216-0.086 0.117-0.062 0.241-0.092 0.368-0.127 0.078-0.022 0.153-0.048 0.229-0.076 0.117-0.044 0.235-0.075 0.357-0.103 0.082-0.022 0.163-0.048 0.243-0.075 0.099-0.034 0.199-0.065 0.299-0.097 0.020-0.006 0.040-0.013 0.061-0.019 0.174-0.055 0.351-0.099 0.529-0.139 0.172-0.039 0.337-0.085 0.504-0.143 0.084-0.027 0.168-0.044 0.255-0.059 0.068-0.014 0.134-0.031 0.2-0.050 0.107-0.030 0.214-0.054 0.323-0.074 0.071-0.014 0.141-0.032 0.212-0.051 0.125-0.032 0.249-0.054 0.376-0.074 0.082-0.014 0.163-0.033 0.244-0.052 0.111-0.027 0.219-0.045 0.333-0.055 0.056-0.006 0.056-0.006 0.137-0.031 0.089-0.026 0.172-0.036 0.265-0.044 0.050-0.004 0.050-0.004 0.098-0.031 0.038-0.004 0.077-0.008 0.116-0.011 0.097-0.009 0.186-0.025 0.28-0.050 0.167-0.042 0.337-0.063 0.509-0.076 0.107-0.008 0.206-0.024 0.311-0.049 0.19-0.043 0.381-0.065 0.575-0.076 0.132-0.008 0.257-0.024 0.387-0.049 0.252-0.046 0.503-0.067 0.759-0.079 0.114-0.006 0.225-0.017 0.338-0.035 0.163-0.026 0.325-0.035 0.489-0.041 0.019-0.001 0.038-0.001 0.058-0.002 0.026-0.001 0.026-0.001 0.052-0.002 0.054-0.003 0.054-0.003 0.113-0.017 0.070-0.013 0.135-0.017 0.206-0.019 0.040-0.001 0.040-0.001 0.081-0.003 0.028-0.001 0.055-0.002 0.084-0.003 0.164-0.005 0.326-0.011 0.489-0.031 0.101-0.011 0.202-0.015 0.303-0.020 0.021-0.001 0.041-0.002 0.063-0.003 0.403-0.020 0.403-0.020 0.514 0.017z"></path>
<path d="M5.203 22.534c0.038-0 0.038-0 0.077-0.001 0.085-0.001 0.17-0.001 0.255-0 0.061-0 0.122-0.001 0.183-0.001 0.149-0.001 0.297-0.001 0.445-0.001 0.121 0 0.242-0 0.362-0 0.38-0.001 0.76-0.002 1.139-0.001 0.299 0 0.598-0.001 0.898-0.002 0.307-0.002 0.615-0.002 0.922-0.002 0.173 0 0.345-0 0.518-0.001 0.162-0.001 0.325-0.001 0.487-0 0.060 0 0.119 0 0.179-0.001 0.451-0.005 0.451-0.005 0.591 0.079 0.055 0.055 0.098 0.109 0.14 0.174 0.017 0.008 0.033 0.017 0.050 0.025 0 0.017 0 0.033 0 0.050 0.025 0.008 0.050 0.017 0.075 0.025 0 0.017 0 0.033 0 0.050 0.017 0 0.033 0 0.050 0 0 0.017 0 0.033 0 0.050 0.014 0.006 0.029 0.013 0.044 0.020 0.059 0.032 0.1 0.067 0.149 0.114 0.017 0.016 0.034 0.032 0.052 0.049s0.036 0.034 0.053 0.052c0.035 0.034 0.070 0.067 0.105 0.101 0.017 0.016 0.033 0.032 0.050 0.048 0.039 0.035 0.080 0.069 0.121 0.101 0.017 0.014 0.033 0.027 0.050 0.041 0 0.017 0 0.033 0 0.050 0.014 0.006 0.029 0.013 0.044 0.020 0.060 0.033 0.099 0.070 0.146 0.119 0.060 0.064 0.060 0.064 0.134 0.111 0 0.017 0 0.033 0 0.050 0.014 0.006 0.029 0.012 0.043 0.019 0.065 0.036 0.108 0.079 0.159 0.133 0.066 0.072 0.066 0.072 0.147 0.123 0 0.017 0 0.033 0 0.050 0.021 0.008 0.021 0.008 0.042 0.016 0.193 0.114 0.23 0.305 0.283 0.509 0.021 0.088 0.042 0.177 0.063 0.266 0.025 0.109 0.053 0.216 0.084 0.323 0.048 0.164 0.090 0.328 0.131 0.494 0.006 0.026 0.013 0.051 0.019 0.077 0.028 0.113 0.055 0.225 0.079 0.338 0.018 0.080 0.043 0.151 0.074 0.227 0.017 0.064 0.033 0.128 0.048 0.192 0.033 0.136 0.069 0.269 0.111 0.402 0.021 0.074 0.037 0.148 0.053 0.224 0.014 0.062 0.032 0.122 0.051 0.182 0.036 0.116 0.063 0.232 0.088 0.35 0.009 0.042 0.018 0.084 0.027 0.125 0.004 0.018 0.008 0.037 0.012 0.056 0.008 0.044 0.008 0.044 0.037 0.069 0.009 0.033 0.016 0.067 0.023 0.1 0.005 0.020 0.009 0.040 0.013 0.061 0.009 0.043 0.018 0.085 0.027 0.128 0.004 0.020 0.008 0.040 0.013 0.061 0.004 0.018 0.008 0.037 0.012 0.056 0.008 0.044 0.008 0.044 0.037 0.069 0.009 0.033 0.016 0.067 0.023 0.1 0.005 0.020 0.009 0.040 0.013 0.061 0.009 0.043 0.018 0.085 0.027 0.128 0.004 0.020 0.008 0.040 0.013 0.061 0.004 0.018 0.008 0.037 0.012 0.056 0.008 0.044 0.008 0.044 0.037 0.069 0.009 0.033 0.016 0.067 0.023 0.1 0.005 0.020 0.009 0.040 0.013 0.061 0.009 0.043 0.018 0.085 0.027 0.128 0.004 0.020 0.008 0.040 0.013 0.061 0.006 0.028 0.006 0.028 0.012 0.056 0.008 0.044 0.008 0.044 0.037 0.069 0.007 0.036 0.011 0.073 0.015 0.11 0.002 0.020 0.005 0.040 0.007 0.060 0.002 0.055 0.002 0.055-0.023 0.131-0.017 0-0.033 0-0.050 0-0.008 0.025-0.017 0.049-0.025 0.075-0.017 0-0.033 0-0.050 0-0.008 0.020-0.008 0.020-0.017 0.041-0.059 0.105-0.141 0.206-0.233 0.284-0.017 0-0.033 0-0.050 0-0.009 0.021-0.009 0.021-0.019 0.042-0.037 0.069-0.080 0.125-0.131 0.183-0.017 0-0.033 0-0.050 0-0.007 0.014-0.013 0.028-0.020 0.043-0.064 0.12-0.14 0.208-0.255 0.282-0.149 0.034-0.294 0.031-0.446 0.030-0.046 0-0.091 0.001-0.137 0.001-0.125 0.001-0.251 0.001-0.376 0.001-0.135-0-0.271 0.001-0.406 0.002-0.265 0.002-0.53 0.002-0.795 0.002-0.216 0-0.431 0-0.646 0.001-0.062 0-0.124 0-0.186 0-0.031 0-0.062 0-0.094 0-0.584 0.001-1.169 0.001-1.753 0.001-0.534-0-1.069 0.001-1.603 0.004-0.549 0.003-1.098 0.003-1.647 0.003-0.308-0-0.616 0-0.924 0.002-0.263 0.002-0.525 0.002-0.787 0-0.134-0.001-0.268-0.001-0.401 0.001-0.123 0.002-0.245 0.001-0.368-0-0.044-0-0.088 0-0.132 0.001-0.195 0.004-0.352 0.002-0.503-0.133-0.244-0.244-0.244-0.244-0.244-0.34-0.017 0-0.033 0-0.050 0-0.041-0.041-0.041-0.041-0.086-0.095-0.064-0.075-0.064-0.075-0.132-0.145-0.032-0.034-0.032-0.034-0.032-0.084-0.016 0-0.033 0-0.050 0-0.042-0.043-0.042-0.043-0.089-0.099-0.023-0.027-0.023-0.027-0.047-0.055-0.013-0.015-0.026-0.030-0.039-0.046-0.008-0.008-0.016-0.017-0.025-0.025-0.012-0.169 0.021-0.315 0.075-0.475 0.008-0.008 0.016-0.017 0.025-0.025 0.011-0.049 0.022-0.098 0.031-0.147 0.043-0.207 0.097-0.412 0.152-0.616 0.016-0.062 0.033-0.124 0.049-0.186 0.047-0.181 0.095-0.362 0.147-0.542 0.037-0.128 0.069-0.255 0.095-0.384 0.071-0.331 0.071-0.331 0.127-0.462 0.029-0.078 0.037-0.155 0.049-0.238 0.021-0.082 0.043-0.16 0.076-0.238 0.029-0.078 0.037-0.155 0.049-0.238 0.021-0.082 0.043-0.16 0.076-0.238 0.029-0.078 0.037-0.155 0.049-0.238 0.021-0.082 0.043-0.16 0.076-0.238 0.029-0.078 0.037-0.155 0.049-0.238 0.021-0.080 0.042-0.156 0.075-0.232 0.029-0.078 0.044-0.154 0.060-0.235 0.088-0.421 0.088-0.421 0.241-0.533 0.017 0 0.033 0 0.050 0 0-0.017 0-0.033 0-0.050 0.137-0.125 0.137-0.125 0.2-0.125 0-0.017 0-0.033 0-0.050 0.039-0.040 0.039-0.040 0.092-0.084 0.027-0.023 0.027-0.023 0.055-0.047 0.018-0.015 0.035-0.029 0.053-0.044 0.023-0.020 0.047-0.040 0.072-0.061 0.053-0.039 0.053-0.039 0.103-0.039 0-0.017 0-0.033 0-0.050 0.017 0 0.033 0 0.050 0 0-0.017 0-0.033 0-0.050 0.039-0.040 0.039-0.040 0.092-0.084 0.027-0.023 0.027-0.023 0.055-0.047 0.018-0.015 0.035-0.029 0.053-0.044 0.023-0.020 0.047-0.040 0.072-0.061 0.053-0.039 0.053-0.039 0.103-0.039 0-0.017 0-0.033 0-0.050 0.137-0.125 0.137-0.125 0.2-0.125 0.012-0.037 0.012-0.037 0.025-0.075 0.016 0 0.033 0 0.050 0 0-0.017 0-0.033 0-0.050 0.043-0.040 0.087-0.077 0.133-0.114 0.037-0.030 0.037-0.030 0.075-0.061 0.067-0.050 0.067-0.050 0.143-0.075 0.008-0.025 0.016-0.049 0.025-0.075 0.016 0 0.033 0 0.050 0 0-0.017 0-0.033 0-0.050 0.125-0.136 0.224-0.143 0.403-0.142z"></path>
<path d="M3.89 19.469c0.029 0 0.058-0 0.089-0 0.049 0 0.049 0 0.098 0 0.035 0 0.069 0 0.104-0 0.096 0 0.191 0 0.286 0 0.103 0 0.205 0 0.308 0 0.201 0 0.402 0 0.604 0 0.234 0 0.468 0 0.702 0 0.417 0 0.835 0 1.252 0 0.405 0 0.811 0 1.216 0 0.025 0 0.050 0 0.076 0s0.050 0 0.075 0c0.461 0 0.922 0 1.383 0 0.163 0 0.326 0 0.49 0 0.199 0 0.398 0 0.597 0 0.102 0 0.203 0 0.305 0 0.093 0 0.186 0 0.278 0 0.050 0 0.1 0 0.149 0 0.044 0 0.044 0 0.088 0 0.025 0 0.051 0 0.077 0 0.057 0.003 0.057 0.003 0.082 0.028 0.003 0.058 0.004 0.116 0.004 0.174 0 0.027 0 0.027 0 0.055 0 0.061 0 0.121 0 0.181 0 0.042 0 0.084 0 0.125 0 0.088 0 0.175 0 0.263 0 0.113 0 0.225 0.001 0.338 0 0.087 0 0.173 0 0.259 0 0.041 0 0.083 0 0.125 0 0.058 0 0.116 0 0.174 0 0.017 0.001 0.035 0.001 0.052-0.001 0.090-0.005 0.125-0.056 0.203-0.059 0.009-0.059 0.009-0.136 0.009-0.029 0-0.058 0-0.088 0-0.033-0-0.065-0-0.098-0-0.034 0-0.069 0-0.103 0-0.095 0-0.19 0-0.285 0-0.102-0-0.205 0-0.307 0-0.2 0-0.401 0-0.601 0-0.163 0-0.326 0-0.489 0-0.023 0-0.046 0-0.070 0-0.047 0-0.094 0-0.141 0-0.441 0-0.883 0-1.324-0-0.379-0-0.758-0-1.137 0-0.44 0-0.879 0-1.319 0-0.047 0-0.094 0-0.141 0-0.023 0-0.046 0-0.070 0-0.163 0-0.325 0-0.488 0-0.198 0-0.396 0-0.595-0-0.101-0-0.202-0-0.303 0-0.093 0-0.185 0-0.278-0-0.050 0-0.099 0-0.149 0-0.044-0-0.044-0-0.088-0-0.025 0-0.050 0-0.077-0-0.063-0.009-0.063-0.009-0.108-0.043-0.049-0.069-0.039-0.136-0.039-0.219 0-0.018-0-0.036-0-0.055-0.001-0.059-0-0.119 0-0.178 0-0.041 0-0.082-0-0.124 0-0.087 0-0.173 0.001-0.259 0.001-0.111 0-0.222-0-0.333-0-0.085-0-0.17 0-0.256 0-0.041 0-0.082-0-0.123 0-0.057 0-0.114 0.001-0.171 0-0.032 0-0.065 0-0.099 0.003-0.025 0.006-0.050 0.010-0.076 0.085-0.057 0.115-0.056 0.215-0.056z"></path>
</symbol>
</defs>
</svg>
