<?xml version="1.0" encoding="utf-8"?>
<svg version="1.1" 
xmlns="http://www.w3.org/2000/svg" 
xmlns:xlink="http://www.w3.org/1999/xlink" x="0px" y="0px" 



width="24"
height="24">

<g>
<g>
<path 
stroke-width="7" 


d="M52.9,10C29.3,10,10,29.3,10,52.9v150.2c0,23.6,19.3,42.9,42.9,42.9h150.2c23.6,0,42.9-19.3,42.9-42.9V52.9c0-23.6-19.3-42.9-42.9-42.9H52.9L52.9,10z M188.1,199c-10.9,10.9-51.5,0.6-91.6-39.5C56.4,119.4,46.1,78.8,57,67.9c9.4-9.4,20.9-25.9,38.2-4.5c17.3,21.5,8.8,27.5-1,37.2c-6.8,6.8,7.4,24,22.3,38.9c14.9,14.9,32.1,29.1,38.9,22.3c9.8-9.7,15.8-18.2,37.2-1C214,178.1,197.5,189.6,188.1,199L188.1,199z"/>
</g>
</g>
</svg>