
<svg version="1.0" xmlns="http://www.w3.org/2000/svg"
 width="512.000000pt" height="512.000000pt" viewBox="0 0 512.000000 512.000000" fill="current"
 >

<g transform="translate(0.000000,512.000000) scale(0.100000,-0.100000)"
 stroke="none">
<path d="M4840 4973 c-317 -21 -496 -41 -730 -79 -483 -80 -916 -213 -1322
-406 l-129 -61 -148 -250 -149 -249 -17 98 c-27 157 -30 167 -41 171 -6 2 -71
-45 -145 -104 l-134 -108 -77 -230 c-42 -126 -77 -227 -78 -224 -1 14 -41 215
-46 228 -6 17 -30 -10 -132 -144 -234 -306 -381 -652 -436 -1025 -20 -137 -31
-371 -16 -350 6 8 45 76 87 150 298 529 746 1056 1278 1501 224 187 704 529
743 529 5 0 30 -34 55 -75 l46 -74 -147 -97 c-776 -508 -1436 -1198 -1836
-1917 l-38 -67 65 0 c64 0 66 1 183 80 119 79 278 199 395 298 l62 53 -144 -6
-144 -6 265 113 265 113 395 390 c547 541 766 753 908 879 67 60 120 111 118
113 -2 3 -44 13 -93 24 -48 10 -99 21 -113 25 -19 4 41 31 260 113 l285 107
122 89 c188 138 469 301 658 382 l50 21 -40 -1 c-22 0 -60 -2 -85 -4z"/>
<path d="M600 1850 l0 -150 670 0 670 0 0 150 0 150 -670 0 -670 0 0 -150z"/>
<path d="M653 1382 c-78 -70 -151 -136 -162 -147 -15 -14 -51 -138 -130 -439
-91 -344 -108 -422 -98 -436 7 -9 40 -47 74 -84 l62 -66 883 0 883 0 74 81 74
81 -108 411 c-59 227 -110 419 -114 428 -3 9 -75 80 -158 157 l-153 142 -492
-1 -493 -1 -142 -126z"/>
</g>
</svg>
