<!--version="1.0" encoding="UTF-8" standalone="no"--><!-- Created with Inkscape (http://www.inkscape.org/) --><svg xmlns="http://www.w3.org/2000/svg" version="1.1" width="119.585" height="44.07mm" viewBox="0 0 9.39 13.08" id="svg2" xml:space="preserve" style="fill-rule: evenodd;">
<defs id="defs4"><style type="text/css" id="style6"/>
</defs><g id="Layer_x0020_1">
<path d="M4.652 13.058a605.27 605.27 0 0 0-3.688-1.643l-.006-.003-.004-.002A1.782 1.782 0 0 1 0 9.88V0h9.39v9.88c0 .057.006 1-.954 1.53l-.003.002-.007.003c-.912.397-3.668 1.64-3.676 1.643l-.05.022-.048-.022zm-3.585-1.86c.856.373 3.26 1.45 3.633 1.62.37-.168 2.753-1.24 3.624-1.62.858-.477.828-1.315.828-1.317V.24H.238V9.883c-.002.002-.032.84.825 1.316z" id="path10" style="fill: rgb(255, 255, 255); fill-rule: nonzero;"/><path d="M4.7.91c-.396.44-.402.99-.402 1.092 0 .584.076 1.62.076 2.757 0 1.775-.852 2.957-.852 2.957s-.015.03-.19.03-.55-.142-.55-.56c0-.416.46-.532.548-.532.087 0 .13.014.13.014l-.283-2.48c-.38-1.84-1.762-2.483-1.762-2.483V9.66h1.842s.134 1.122 1.117 1.837c0 0 .312.268.327.355.016-.087.328-.355.328-.355.983-.715 1.117-1.836 1.117-1.836h1.843V1.71S6.605 2.35 6.224 4.19L5.94 6.67c.002 0 .046-.014.133-.014s.547.116.547.533c0 .415-.378.556-.552.556s-.188-.03-.188-.03-.853-1.18-.853-2.96c0-1.134.076-2.17.076-2.755 0-.1-.005-.652-.402-1.092zm-.282 8.752h-.566s.062.657.566 1.125V9.662zm.566 0h.565s-.063.657-.567 1.125V9.662zM7.428 2.88s-.5.624-.645 1.356c-.08.675-.24 1.988-.24 1.988s.48.203.588.704h.3V2.88zM6.093 8.306c.117 0 .882-.112 1.038-.827h.3v1.645H6.21s0-.45-.117-.82zm-.453.812h-.664s.022-.587.577-.674c.047.152.087.337.087.674zM4.7 6.42s-.242.9-.63 1.487c.145.094.63.424.63.424 0 .002.487-.328.632-.422C4.944 7.32 4.7 6.42 4.7 6.42zm-.94 2.698h.666s-.02-.587-.577-.674a2.12 2.12 0 0 0-.088.674zm-.45-.812c-.117 0-.882-.112-1.038-.827h-.297v1.645h1.22s0-.45.115-.82zM1.972 2.88s.5.624.646 1.356c.078.675.237 1.988.237 1.988s-.48.203-.587.704h-.297V2.88z" id="path12" style="fill: rgb(255, 255, 255);"/>
</g>
</svg>